<svg width="240" height="146" viewBox="0 0 240 146" fill="none" xmlns="http://www.w3.org/2000/svg">
<path d="M10.5461 132.161L6.76035 125.475H5.13787V132.161H1.69623V115.002H8.13701C9.46449 115.002 10.5953 115.24 11.5295 115.715C12.4636 116.174 13.1602 116.805 13.619 117.608C14.0943 118.395 14.3319 119.28 14.3319 120.263C14.3319 121.394 14.0042 122.418 13.3486 123.336C12.6931 124.237 11.7179 124.86 10.4232 125.204L14.5286 132.161H10.5461ZM5.13787 122.893H8.01409C8.94825 122.893 9.64477 122.672 10.1037 122.23C10.5625 121.771 10.792 121.14 10.792 120.337C10.792 119.55 10.5625 118.944 10.1037 118.518C9.64477 118.075 8.94825 117.854 8.01409 117.854H5.13787V122.893ZM20.8864 117.78V122.082H26.6634V124.811H20.8864V129.359H27.4009V132.161H17.4448V114.978H27.4009V117.78H20.8864ZM41.0501 128.892H34.216L33.0852 132.161H29.4715L35.6418 114.978H39.6489L45.8192 132.161H42.1809L41.0501 128.892ZM40.116 126.138L37.6331 118.96L35.1502 126.138H40.116ZM66.8334 115.002V132.161H63.3917V121L58.7947 132.161H56.1889L51.5673 121V132.161H48.1256V115.002H52.0344L57.4918 127.761L62.9492 115.002H66.8334ZM86.0086 132.161L81.9278 125.155H79.2236V132.161H76.9866V115.027H82.5178C83.8125 115.027 84.9023 115.248 85.7873 115.69C86.6887 116.133 87.3606 116.731 87.8031 117.485C88.2456 118.239 88.4669 119.099 88.4669 120.066C88.4669 121.246 88.1227 122.287 87.4344 123.188C86.7625 124.09 85.7464 124.688 84.3861 124.983L88.6881 132.161H86.0086ZM79.2236 123.36H82.5178C83.7305 123.36 84.6401 123.065 85.2465 122.475C85.8529 121.869 86.1561 121.066 86.1561 120.066C86.1561 119.05 85.8529 118.263 85.2465 117.706C84.6565 117.149 83.7469 116.87 82.5178 116.87H79.2236V123.36ZM93.0983 116.502C92.6722 116.502 92.3116 116.354 92.0166 116.059C91.7216 115.764 91.5741 115.404 91.5741 114.978C91.5741 114.551 91.7216 114.191 92.0166 113.896C92.3116 113.601 92.6722 113.453 93.0983 113.453C93.508 113.453 93.8522 113.601 94.1308 113.896C94.4258 114.191 94.5733 114.551 94.5733 114.978C94.5733 115.404 94.4258 115.764 94.1308 116.059C93.8522 116.354 93.508 116.502 93.0983 116.502ZM94.18 118.69V132.161H91.9429V118.69H94.18ZM102.762 132.382C101.729 132.382 100.803 132.21 99.9839 131.866C99.1644 131.506 98.5171 131.014 98.0418 130.391C97.5665 129.752 97.3043 129.023 97.2552 128.203H99.566C99.6315 128.875 99.9429 129.424 100.5 129.85C101.074 130.276 101.819 130.489 102.737 130.489C103.589 130.489 104.261 130.301 104.753 129.924C105.245 129.547 105.49 129.072 105.49 128.498C105.49 127.908 105.228 127.474 104.704 127.195C104.179 126.9 103.368 126.614 102.27 126.335C101.27 126.073 100.451 125.81 99.8118 125.548C99.189 125.27 98.6482 124.868 98.1893 124.344C97.7468 123.803 97.5256 123.098 97.5256 122.23C97.5256 121.541 97.7304 120.91 98.1401 120.337C98.5499 119.763 99.1317 119.312 99.8855 118.985C100.639 118.64 101.5 118.468 102.467 118.468C103.958 118.468 105.163 118.845 106.08 119.599C106.998 120.353 107.49 121.386 107.555 122.697H105.318C105.269 121.992 104.982 121.427 104.458 121C103.95 120.574 103.262 120.361 102.393 120.361C101.59 120.361 100.951 120.533 100.476 120.877C100 121.222 99.7626 121.672 99.7626 122.23C99.7626 122.672 99.9019 123.041 100.181 123.336C100.476 123.614 100.836 123.844 101.262 124.024C101.705 124.188 102.311 124.376 103.081 124.59C104.048 124.852 104.835 125.114 105.441 125.376C106.048 125.622 106.564 125.999 106.99 126.507C107.433 127.015 107.662 127.679 107.678 128.498C107.678 129.236 107.474 129.899 107.064 130.489C106.654 131.079 106.072 131.547 105.318 131.891C104.581 132.218 103.729 132.382 102.762 132.382ZM118.359 132.161L113.073 126.212V132.161H110.836V113.97H113.073V124.663L118.26 118.69H121.382L115.04 125.401L121.407 132.161H118.359ZM141.498 120.042C141.498 121.467 141.006 122.656 140.023 123.606C139.056 124.54 137.573 125.007 135.573 125.007H132.279V132.161H130.042V115.027H135.573C137.507 115.027 138.974 115.494 139.973 116.428C140.99 117.362 141.498 118.567 141.498 120.042ZM135.573 123.164C136.819 123.164 137.736 122.893 138.326 122.352C138.916 121.812 139.211 121.041 139.211 120.042C139.211 117.928 137.999 116.87 135.573 116.87H132.279V123.164H135.573ZM146.515 120.877C146.908 120.107 147.466 119.509 148.187 119.083C148.924 118.657 149.817 118.444 150.866 118.444V120.755H150.276C147.769 120.755 146.515 122.115 146.515 124.835V132.161H144.278V118.69H146.515V120.877ZM165.74 124.909C165.74 125.335 165.716 125.786 165.666 126.261H154.899C154.981 127.589 155.432 128.629 156.251 129.383C157.087 130.121 158.095 130.489 159.275 130.489C160.242 130.489 161.045 130.268 161.684 129.826C162.34 129.367 162.798 128.76 163.061 128.007H165.47C165.109 129.301 164.388 130.358 163.306 131.178C162.225 131.981 160.881 132.382 159.275 132.382C157.997 132.382 156.849 132.096 155.833 131.522C154.834 130.948 154.047 130.137 153.473 129.088C152.9 128.023 152.613 126.794 152.613 125.401C152.613 124.008 152.891 122.787 153.449 121.738C154.006 120.689 154.784 119.886 155.784 119.329C156.8 118.755 157.964 118.468 159.275 118.468C160.553 118.468 161.684 118.747 162.667 119.304C163.651 119.861 164.405 120.632 164.929 121.615C165.47 122.582 165.74 123.68 165.74 124.909ZM163.429 124.442C163.429 123.59 163.241 122.861 162.864 122.254C162.487 121.631 161.971 121.164 161.315 120.853C160.676 120.525 159.963 120.361 159.177 120.361C158.046 120.361 157.079 120.722 156.276 121.443C155.489 122.164 155.038 123.164 154.924 124.442H163.429ZM167.857 125.376C167.857 124 168.136 122.795 168.693 121.762C169.25 120.714 170.012 119.902 170.979 119.329C171.963 118.755 173.061 118.468 174.273 118.468C175.322 118.468 176.297 118.714 177.199 119.206C178.1 119.681 178.789 120.312 179.264 121.099V113.97H181.525V132.161H179.264V129.629C178.821 130.432 178.166 131.096 177.297 131.62C176.429 132.128 175.412 132.382 174.249 132.382C173.052 132.382 171.963 132.087 170.979 131.497C170.012 130.907 169.25 130.08 168.693 129.014C168.136 127.949 167.857 126.736 167.857 125.376ZM179.264 125.401C179.264 124.385 179.059 123.5 178.649 122.746C178.239 121.992 177.682 121.418 176.978 121.025C176.289 120.615 175.527 120.41 174.691 120.41C173.856 120.41 173.093 120.607 172.405 121C171.717 121.394 171.168 121.967 170.758 122.721C170.348 123.475 170.143 124.36 170.143 125.376C170.143 126.409 170.348 127.31 170.758 128.08C171.168 128.834 171.717 129.416 172.405 129.826C173.093 130.219 173.856 130.416 174.691 130.416C175.527 130.416 176.289 130.219 176.978 129.826C177.682 129.416 178.239 128.834 178.649 128.08C179.059 127.31 179.264 126.417 179.264 125.401ZM186.461 116.502C186.035 116.502 185.675 116.354 185.38 116.059C185.085 115.764 184.937 115.404 184.937 114.978C184.937 114.551 185.085 114.191 185.38 113.896C185.675 113.601 186.035 113.453 186.461 113.453C186.871 113.453 187.215 113.601 187.494 113.896C187.789 114.191 187.936 114.551 187.936 114.978C187.936 115.404 187.789 115.764 187.494 116.059C187.215 116.354 186.871 116.502 186.461 116.502ZM187.543 118.69V132.161H185.306V118.69H187.543ZM190.52 125.401C190.52 124.008 190.798 122.795 191.356 121.762C191.913 120.714 192.683 119.902 193.666 119.329C194.666 118.755 195.805 118.468 197.083 118.468C198.739 118.468 200.099 118.87 201.164 119.673C202.246 120.476 202.959 121.59 203.303 123.016H200.894C200.664 122.197 200.214 121.549 199.542 121.074C198.886 120.599 198.067 120.361 197.083 120.361C195.805 120.361 194.773 120.804 193.986 121.689C193.199 122.557 192.806 123.795 192.806 125.401C192.806 127.023 193.199 128.277 193.986 129.162C194.773 130.047 195.805 130.489 197.083 130.489C198.067 130.489 198.886 130.26 199.542 129.801C200.197 129.342 200.648 128.687 200.894 127.835H203.303C202.942 129.211 202.221 130.317 201.14 131.153C200.058 131.973 198.706 132.382 197.083 132.382C195.805 132.382 194.666 132.096 193.666 131.522C192.683 130.948 191.913 130.137 191.356 129.088C190.798 128.039 190.52 126.81 190.52 125.401ZM209.017 120.533V128.474C209.017 129.129 209.156 129.596 209.435 129.875C209.713 130.137 210.197 130.268 210.885 130.268H212.532V132.161H210.516C209.271 132.161 208.336 131.874 207.714 131.301C207.091 130.727 206.78 129.785 206.78 128.474V120.533H205.034V118.69H206.78V115.297H209.017V118.69H212.532V120.533H209.017ZM221.118 132.382C219.856 132.382 218.709 132.096 217.676 131.522C216.66 130.948 215.857 130.137 215.267 129.088C214.693 128.023 214.407 126.794 214.407 125.401C214.407 124.024 214.702 122.811 215.292 121.762C215.898 120.697 216.717 119.886 217.75 119.329C218.782 118.755 219.938 118.468 221.216 118.468C222.495 118.468 223.65 118.755 224.682 119.329C225.715 119.886 226.526 120.689 227.116 121.738C227.723 122.787 228.026 124.008 228.026 125.401C228.026 126.794 227.714 128.023 227.092 129.088C226.485 130.137 225.658 130.948 224.609 131.522C223.56 132.096 222.396 132.382 221.118 132.382ZM221.118 130.416C221.921 130.416 222.675 130.227 223.379 129.85C224.084 129.473 224.65 128.908 225.076 128.154C225.518 127.4 225.739 126.482 225.739 125.401C225.739 124.319 225.526 123.401 225.1 122.647C224.674 121.894 224.117 121.336 223.429 120.976C222.74 120.599 221.995 120.41 221.192 120.41C220.372 120.41 219.618 120.599 218.93 120.976C218.258 121.336 217.717 121.894 217.307 122.647C216.898 123.401 216.693 124.319 216.693 125.401C216.693 126.499 216.89 127.425 217.283 128.179C217.693 128.933 218.233 129.498 218.905 129.875C219.577 130.235 220.315 130.416 221.118 130.416ZM233.204 120.877C233.597 120.107 234.155 119.509 234.876 119.083C235.613 118.657 236.506 118.444 237.555 118.444V120.755H236.965C234.458 120.755 233.204 122.115 233.204 124.835V132.161H230.967V118.69H233.204V120.877Z" fill="white"/>
<g clip-path="url(#clip0_90_3011)">
<path d="M120.183 21.6958C124.828 21.6958 128.593 17.5626 128.593 12.4641C128.593 7.36548 124.828 3.23227 120.183 3.23227C115.538 3.23227 111.772 7.36548 111.772 12.4641C111.772 17.5626 115.538 21.6958 120.183 21.6958Z" fill="white"/>
<path d="M133.833 15.8526C132.42 22.7063 126.849 27.8502 120.184 27.8502C113.519 27.8502 107.949 22.7063 106.535 15.8526C101.521 17.0788 97.7562 21.982 97.7562 27.8502V40.1594C97.7562 43.5522 100.272 46.314 103.363 46.314C106.454 46.314 108.97 43.5522 108.97 40.1594V34.0048H131.398V40.1594C131.398 43.5522 133.914 46.314 137.005 46.314C140.096 46.314 142.612 43.5522 142.612 40.1594V27.8502C142.612 21.982 138.847 17.0788 133.833 15.8526Z" fill="white"/>
<path d="M163.637 78.4408C159.614 75.8914 154.47 77.404 152.148 81.8197C149.825 86.2351 151.204 91.8814 155.226 94.4304C159.249 96.9799 164.58 95.4669 166.902 91.0515C169.225 86.636 167.659 80.9901 163.637 78.4408Z" fill="white"/>
<path d="M158.506 57.4222L148.795 51.2676C146.118 49.5712 142.681 50.582 141.136 53.5205C139.59 56.4589 140.511 60.2313 143.188 61.9277L148.044 65.0049L136.83 86.3249L131.974 83.2477C129.297 81.5513 125.86 82.5622 124.315 85.5006C122.769 88.4391 123.69 92.2115 126.367 93.9079L136.079 100.062C140.709 102.997 146.46 101.869 149.934 97.7161C145.233 92.9456 143.96 85.0784 147.293 78.7422C150.625 72.406 157.469 69.6832 163.583 71.766C165.123 66.3873 163.137 60.3563 158.506 57.4222Z" fill="white"/>
<path d="M88.2202 81.8198C85.8976 77.4041 80.754 75.8913 76.7311 78.4409C72.7086 80.9902 71.1431 86.636 73.4659 91.0518C75.7882 95.4671 81.1191 96.9801 85.1416 94.4307C89.1645 91.8813 90.5427 86.2352 88.2202 81.8198Z" fill="white"/>
<path d="M116.054 85.5011C114.508 82.5627 111.072 81.5521 108.395 83.2483L103.539 86.3255L92.3247 65.0055L97.1806 61.9283C99.8576 60.2318 100.778 56.4592 99.233 53.521C97.6876 50.5826 94.2506 49.5719 91.5738 51.2681L81.8624 57.4227C77.2321 60.3569 75.2462 66.3879 76.7858 71.7667C82.9 69.6838 89.7439 72.4068 93.0765 78.743C96.4091 85.0791 95.1356 92.9461 90.4351 97.7169C93.9091 101.869 99.6601 102.997 104.29 100.063L114.002 93.9084C116.679 92.212 117.599 88.4394 116.054 85.5011Z" fill="white"/>
</g>
<defs>
<clipPath id="clip0_90_3011">
<rect width="95.6009" height="104.937" fill="white" transform="translate(72.3838)"/>
</clipPath>
</defs>
</svg>
